<mxfile host="app.diagrams.net" agent="Mozilla/5.0 (Macintosh; Intel Mac OS X 10_15_7) AppleWebKit/537.36 (KHTML, like Gecko) Chrome/127.0.0.0 Safari/537.36" version="24.7.6">
  <diagram name="Stránka-1" id="6ykChMME9OoKXxeW2pP7">
    <mxGraphModel>
      <root>
        <mxCell id="0" />
        <mxCell id="1" parent="0" />
        <mxCell id="2" value="Aktualizovaný plán vývoje PillSee: LangChain + Next.js + PocketBase" style="whiteSpace=wrap;strokeWidth=2;verticalAlign=top;" vertex="1" parent="1">
          <mxGeometry width="491" height="488" as="geometry" />
        </mxCell>
        <mxCell id="3" value="Fáze 1: Nastavení prostředí a základní konfigurace" style="whiteSpace=wrap;strokeWidth=2;verticalAlign=top;" vertex="1" parent="2">
          <mxGeometry x="33" y="43" width="363" height="418" as="geometry" />
        </mxCell>
        <mxCell id="4" value="Zajištění_potřebných_technologií" style="whiteSpace=wrap;strokeWidth=2;" vertex="1" parent="3">
          <mxGeometry x="55" y="117" width="255" height="34" as="geometry" />
        </mxCell>
        <mxCell id="5" value="Nastavení_prostředí" style="whiteSpace=wrap;strokeWidth=2;" vertex="1" parent="3">
          <mxGeometry x="104" y="33" width="158" height="34" as="geometry" />
        </mxCell>
        <mxCell id="6" value="Nastavení_vývojového_prostředí" style="whiteSpace=wrap;strokeWidth=2;" vertex="1" parent="3">
          <mxGeometry x="59" y="200" width="247" height="34" as="geometry" />
        </mxCell>
        <mxCell id="7" value="Nastavení_systémových_proměnných" style="whiteSpace=wrap;strokeWidth=2;" vertex="1" parent="3">
          <mxGeometry x="43" y="284" width="279" height="34" as="geometry" />
        </mxCell>
        <mxCell id="8" value="Zavedení_mezipaměti" style="whiteSpace=wrap;strokeWidth=2;" vertex="1" parent="3">
          <mxGeometry x="96" y="367" width="173" height="34" as="geometry" />
        </mxCell>
        <mxCell id="9" value="" style="curved=1;startArrow=none;endArrow=block;exitX=0.29;exitY=-0.28;entryX=0.37;entryY=-1.28;" edge="1" parent="3" source="5" target="4">
          <mxGeometry relative="1" as="geometry">
            <Array as="points" />
          </mxGeometry>
        </mxCell>
        <mxCell id="10" value="" style="curved=1;startArrow=none;endArrow=block;exitX=0.37;exitY=-0.29;entryX=0.37;entryY=-1.26;" edge="1" parent="3" source="4" target="6">
          <mxGeometry relative="1" as="geometry">
            <Array as="points" />
          </mxGeometry>
        </mxCell>
        <mxCell id="11" value="" style="curved=1;startArrow=none;endArrow=block;exitX=0.37;exitY=-0.28;entryX=0.38;entryY=-1.28;" edge="1" parent="3" source="6" target="7">
          <mxGeometry relative="1" as="geometry">
            <Array as="points" />
          </mxGeometry>
        </mxCell>
        <mxCell id="12" value="" style="curved=1;startArrow=none;endArrow=block;exitX=0.38;exitY=-0.29;entryX=0.31;entryY=-1.26;" edge="1" parent="3" source="7" target="8">
          <mxGeometry relative="1" as="geometry">
            <Array as="points" />
          </mxGeometry>
        </mxCell>
      </root>
    </mxGraphModel>
  </diagram>
</mxfile>
